<svg width="220" height="220" viewBox="0 0 220 220" xmlns="http://www.w3.org/2000/svg">
  <g transform="translate(110,110)">
    <circle r="100" fill="#0C1118" stroke="#39FF8B" stroke-width="3"/>
    <g font-family="monospace" font-size="11" fill="#E8EEF5" text-anchor="middle">
      <path d="M0 0 L100 0 A100 100 0 0 1 70 70 Z" fill="#16202B"/>
      <path d="M0 0 L70 70 A100 100 0 0 1 -70 70 Z" fill="#0E2E1C"/>
      <path d="M0 0 L-70 70 A100 100 0 0 1 -100 0 Z" fill="#16202B"/>
      <path d="M0 0 L-100 0 A100 100 0 0 1 -70 -70 Z" fill="#1B2430"/>
      <path d="M0 0 L-70 -70 A100 100 0 0 1 70 -70 Z" fill="#0E2E1C"/>
      <path d="M0 0 L70 -70 A100 100 0 0 1 100 0 Z" fill="#16202B"/>
    </g>
    <circle r="16" fill="#FFD24A"/>
  </g>
  <polygon points="110,4 102,24 118,24" fill="#FFD24A"/>
</svg>
